<svg width="494" height="494" viewBox="0 0 494 494" fill="none" xmlns="http://www.w3.org/2000/svg">
<rect width="494" height="494" fill="#9EE7E4"/>
<path d="M319.9 298.512C335.2 309.612 348 322.912 355.2 340.612C359.1 350.212 361.1 360.512 364 370.512C364.1 372.212 364.2 373.812 364.3 375.512C363.5 377.112 362.7 378.712 361.9 380.212C352.6 380.212 343.4 380.212 334.1 380.212C327.9 380.212 321.6 380.212 315.2 380.212C315.2 396.612 315.2 412.712 315.2 428.812C303.9 431.312 292.7 434.612 281.3 436.212C248.3 440.812 215.6 438.912 183.3 430.512C181.7 430.112 180.2 429.412 178.7 428.912C178.7 412.712 178.7 396.512 178.7 380.312C172 380.312 165.9 380.312 159.8 380.312C150.6 380.312 141.3 380.312 132.1 380.312C128 379.212 130.6 375.812 129.8 373.612C130 371.612 130.2 369.612 130.4 367.612C134.1 346.512 142.7 327.812 157.9 312.612C162.9 307.612 168.6 303.312 174 298.712C182.7 299.912 191.3 301.312 200 302.112C205.6 302.612 211.3 302.412 217 302.112C221.8 301.812 225.5 303.112 228.8 306.912C234.4 313.212 240.5 319.112 246.7 325.512C253.1 319.112 259.2 313.512 264.7 307.312C268.3 303.312 272.2 302.212 277.4 302.212C291.6 301.912 306 303.712 319.9 298.512Z" fill="#3B2416"/>
<path d="M361.8 380.212C361.8 390.312 361.8 400.412 361.9 410.612C355.7 413.812 349.5 417.212 343.2 420.212C340.3 421.612 337 422.412 333.9 423.412C334 409.012 334 394.612 334.1 380.212C343.3 380.212 352.6 380.212 361.8 380.212Z" fill="#FDF2E2"/>
<path d="M132 380.212C141.2 380.212 150.5 380.212 159.7 380.212C159.8 394.612 159.9 409.012 160 423.412C150.6 419.112 141.3 414.912 131.9 410.612C132 400.512 132 390.412 132 380.212Z" fill="#FDF2E2"/>
<path d="M319.9 298.512C306.1 303.612 291.6 301.912 277.4 301.912C272.2 301.912 268.3 303.012 264.7 307.012C259.2 313.212 253.1 318.812 246.7 325.212C240.5 318.812 234.4 313.012 228.8 306.612C225.5 302.912 221.8 301.612 217 301.812C211.4 302.112 205.6 302.312 200 301.812C191.3 301.012 182.6 299.512 174 298.412C157.4 290.612 147 277.412 141 260.412C138.6 245.012 136.2 229.712 133.9 214.312C133.7 211.812 133.1 210.812 129.9 211.012C118.8 211.712 108.2 203.012 106.2 192.212C104 180.712 110 169.612 121.1 166.012C126.8 164.112 124.7 160.812 124.1 157.412C125.2 156.712 126.4 156.212 127.5 155.412C159.5 130.412 191.5 105.412 223.6 80.612C226 78.812 229.5 77.712 232.5 77.612C242.3 77.212 252.1 77.312 262 77.612C264.7 77.712 267.9 78.612 270.1 80.312C291.7 96.912 313.2 113.812 334.7 130.612C346.4 139.712 358.2 148.612 369.9 157.512C368 162.512 369.3 165.012 374.8 166.912C384 170.112 389.3 180.812 388 191.412C386.9 200.512 378.8 209.012 369.5 210.612C367.6 210.912 365.5 211.512 363.6 211.212C360.4 210.612 360.4 212.612 360.1 214.612C357.7 230.012 355.3 245.312 353 260.712C348.2 272.812 342.3 284.112 331.3 291.812C327.6 294.212 323.7 296.312 319.9 298.512ZM247.7 236.812C248.4 237.412 249.5 238.512 250.6 239.412C258.6 246.212 267.2 251.712 277.9 252.912C286.2 253.812 294.2 252.712 300.8 246.912C305.1 243.112 305.2 239.512 301.5 235.612C298.6 242.512 293 245.812 285.7 243.412C281.6 242.112 277.9 239.212 274.6 236.412C270.8 233.212 267.9 229.012 264.3 225.612C255.8 217.712 238 217.612 229.5 225.412C226.2 228.412 223.4 232.012 220.2 235.212C218 237.412 215.9 240.312 213.1 241.312C209.1 242.812 204.3 244.012 200.3 243.212C197 242.512 194.2 238.912 191.1 236.512C188.1 240.112 188.6 244.112 193.7 247.812C203.9 255.112 215.1 255.112 225.9 250.212C233.5 246.712 240.2 241.512 247.7 236.812Z" fill="#FEEACB"/>
<path d="M369.8 157.412C358.1 148.412 346.2 139.512 334.6 130.512C313 113.812 291.6 96.9119 270 80.2119C267.9 78.6119 264.7 77.6119 261.9 77.5119C252.1 77.2119 242.3 77.1119 232.4 77.5119C229.4 77.6119 225.8 78.7119 223.5 80.5119C191.4 105.312 159.4 130.412 127.4 155.312C126.4 156.112 125.2 156.712 124 157.312C122.2 146.012 120.4 134.612 118.5 123.312C113.7 95.5119 135.5 55.9119 173.2 56.2119C221.2 56.5119 269.1 57.0119 317.1 56.0119C347.8 55.4119 367.9 77.5119 374.2 101.112C377.8 114.612 374.6 127.512 372.5 140.612C371.6 146.312 370.7 151.912 369.8 157.412Z" fill="#3C2517"/>
<path d="M133.8 214.412C136.2 229.812 138.6 245.112 140.9 260.512C120.2 263.212 99.5 265.912 78 268.712C78.7 267.512 79 266.812 79.5 266.412C96.8 249.612 114 232.812 131.3 216.112C132.1 215.412 133 215.012 133.8 214.412Z" fill="#3E2618"/>
<path d="M352.9 260.512C355.3 245.112 357.6 229.812 360 214.412C360.8 214.912 361.8 215.312 362.4 216.012C379.7 232.812 397 249.612 414.2 266.412C414.6 266.812 415 267.312 416.3 268.712C394.4 265.912 373.7 263.212 352.9 260.512Z" fill="#3E2618"/>
<path d="M247.7 236.812C240.1 241.512 233.5 246.712 226 250.112C215.2 255.012 204 255.012 193.8 247.712C188.7 244.012 188.2 240.112 191.2 236.412C194.3 238.812 197 242.512 200.4 243.112C204.4 243.912 209.2 242.712 213.2 241.212C215.9 240.212 218.1 237.312 220.3 235.112C223.5 231.912 226.3 228.412 229.6 225.312C238.1 217.512 255.9 217.512 264.4 225.512C268 228.912 270.9 233.112 274.7 236.312C278 239.112 281.8 242.012 285.8 243.312C293.1 245.612 298.7 242.412 301.6 235.512C305.3 239.412 305.2 243.112 300.9 246.812C294.3 252.612 286.3 253.812 278 252.812C267.3 251.612 258.7 246.012 250.7 239.312C249.5 238.412 248.5 237.412 247.7 236.812Z" fill="#3F281A"/>
</svg>
